<svg xmlns="http://www.w3.org/2000/svg" width="522" height="522" viewBox="0 0 522 522"><g fill="#26211a"><rect x="36" y="36" width="18" height="18" rx="2"></rect><rect x="54" y="36" width="18" height="18" rx="2"></rect><rect x="72" y="36" width="18" height="18" rx="2"></rect><rect x="90" y="36" width="18" height="18" rx="2"></rect><rect x="108" y="36" width="18" height="18" rx="2"></rect><rect x="126" y="36" width="18" height="18" rx="2"></rect><rect x="144" y="36" width="18" height="18" rx="2"></rect><rect x="198" y="36" width="18" height="18" rx="2"></rect><rect x="288" y="36" width="18" height="18" rx="2"></rect><rect x="306" y="36" width="18" height="18" rx="2"></rect><rect x="324" y="36" width="18" height="18" rx="2"></rect><rect x="360" y="36" width="18" height="18" rx="2"></rect><rect x="378" y="36" width="18" height="18" rx="2"></rect><rect x="396" y="36" width="18" height="18" rx="2"></rect><rect x="414" y="36" width="18" height="18" rx="2"></rect><rect x="432" y="36" width="18" height="18" rx="2"></rect><rect x="450" y="36" width="18" height="18" rx="2"></rect><rect x="468" y="36" width="18" height="18" rx="2"></rect><rect x="36" y="54" width="18" height="18" rx="2"></rect><rect x="144" y="54" width="18" height="18" rx="2"></rect><rect x="216" y="54" width="18" height="18" rx="2"></rect><rect x="234" y="54" width="18" height="18" rx="2"></rect><rect x="252" y="54" width="18" height="18" rx="2"></rect><rect x="270" y="54" width="18" height="18" rx="2"></rect><rect x="324" y="54" width="18" height="18" rx="2"></rect><rect x="360" y="54" width="18" height="18" rx="2"></rect><rect x="468" y="54" width="18" height="18" rx="2"></rect><rect x="36" y="72" width="18" height="18" rx="2"></rect><rect x="72" y="72" width="18" height="18" rx="2"></rect><rect x="90" y="72" width="18" height="18" rx="2"></rect><rect x="108" y="72" width="18" height="18" rx="2"></rect><rect x="144" y="72" width="18" height="18" rx="2"></rect><rect x="252" y="72" width="18" height="18" rx="2"></rect><rect x="324" y="72" width="18" height="18" rx="2"></rect><rect x="360" y="72" width="18" height="18" rx="2"></rect><rect x="396" y="72" width="18" height="18" rx="2"></rect><rect x="414" y="72" width="18" height="18" rx="2"></rect><rect x="432" y="72" width="18" height="18" rx="2"></rect><rect x="468" y="72" width="18" height="18" rx="2"></rect><rect x="36" y="90" width="18" height="18" rx="2"></rect><rect x="72" y="90" width="18" height="18" rx="2"></rect><rect x="90" y="90" width="18" height="18" rx="2"></rect><rect x="108" y="90" width="18" height="18" rx="2"></rect><rect x="144" y="90" width="18" height="18" rx="2"></rect><rect x="198" y="90" width="18" height="18" rx="2"></rect><rect x="234" y="90" width="18" height="18" rx="2"></rect><rect x="270" y="90" width="18" height="18" rx="2"></rect><rect x="288" y="90" width="18" height="18" rx="2"></rect><rect x="324" y="90" width="18" height="18" rx="2"></rect><rect x="360" y="90" width="18" height="18" rx="2"></rect><rect x="396" y="90" width="18" height="18" rx="2"></rect><rect x="414" y="90" width="18" height="18" rx="2"></rect><rect x="432" y="90" width="18" height="18" rx="2"></rect><rect x="468" y="90" width="18" height="18" rx="2"></rect><rect x="36" y="108" width="18" height="18" rx="2"></rect><rect x="72" y="108" width="18" height="18" rx="2"></rect><rect x="90" y="108" width="18" height="18" rx="2"></rect><rect x="108" y="108" width="18" height="18" rx="2"></rect><rect x="144" y="108" width="18" height="18" rx="2"></rect><rect x="180" y="108" width="18" height="18" rx="2"></rect><rect x="270" y="108" width="18" height="18" rx="2"></rect><rect x="324" y="108" width="18" height="18" rx="2"></rect><rect x="360" y="108" width="18" height="18" rx="2"></rect><rect x="396" y="108" width="18" height="18" rx="2"></rect><rect x="414" y="108" width="18" height="18" rx="2"></rect><rect x="432" y="108" width="18" height="18" rx="2"></rect><rect x="468" y="108" width="18" height="18" rx="2"></rect><rect x="36" y="126" width="18" height="18" rx="2"></rect><rect x="144" y="126" width="18" height="18" rx="2"></rect><rect x="198" y="126" width="18" height="18" rx="2"></rect><rect x="234" y="126" width="18" height="18" rx="2"></rect><rect x="270" y="126" width="18" height="18" rx="2"></rect><rect x="288" y="126" width="18" height="18" rx="2"></rect><rect x="324" y="126" width="18" height="18" rx="2"></rect><rect x="360" y="126" width="18" height="18" rx="2"></rect><rect x="468" y="126" width="18" height="18" rx="2"></rect><rect x="36" y="144" width="18" height="18" rx="2"></rect><rect x="54" y="144" width="18" height="18" rx="2"></rect><rect x="72" y="144" width="18" height="18" rx="2"></rect><rect x="90" y="144" width="18" height="18" rx="2"></rect><rect x="108" y="144" width="18" height="18" rx="2"></rect><rect x="126" y="144" width="18" height="18" rx="2"></rect><rect x="144" y="144" width="18" height="18" rx="2"></rect><rect x="216" y="144" width="18" height="18" rx="2"></rect><rect x="252" y="144" width="18" height="18" rx="2"></rect><rect x="288" y="144" width="18" height="18" rx="2"></rect><rect x="306" y="144" width="18" height="18" rx="2"></rect><rect x="360" y="144" width="18" height="18" rx="2"></rect><rect x="378" y="144" width="18" height="18" rx="2"></rect><rect x="396" y="144" width="18" height="18" rx="2"></rect><rect x="414" y="144" width="18" height="18" rx="2"></rect><rect x="432" y="144" width="18" height="18" rx="2"></rect><rect x="450" y="144" width="18" height="18" rx="2"></rect><rect x="468" y="144" width="18" height="18" rx="2"></rect><rect x="180" y="162" width="18" height="18" rx="2"></rect><rect x="216" y="162" width="18" height="18" rx="2"></rect><rect x="270" y="162" width="18" height="18" rx="2"></rect><rect x="36" y="180" width="18" height="18" rx="2"></rect><rect x="54" y="180" width="18" height="18" rx="2"></rect><rect x="72" y="180" width="18" height="18" rx="2"></rect><rect x="126" y="180" width="18" height="18" rx="2"></rect><rect x="144" y="180" width="18" height="18" rx="2"></rect><rect x="180" y="180" width="18" height="18" rx="2"></rect><rect x="198" y="180" width="18" height="18" rx="2"></rect><rect x="234" y="180" width="18" height="18" rx="2"></rect><rect x="252" y="180" width="18" height="18" rx="2"></rect><rect x="270" y="180" width="18" height="18" rx="2"></rect><rect x="324" y="180" width="18" height="18" rx="2"></rect><rect x="342" y="180" width="18" height="18" rx="2"></rect><rect x="360" y="180" width="18" height="18" rx="2"></rect><rect x="378" y="180" width="18" height="18" rx="2"></rect><rect x="396" y="180" width="18" height="18" rx="2"></rect><rect x="432" y="180" width="18" height="18" rx="2"></rect><rect x="468" y="180" width="18" height="18" rx="2"></rect><rect x="54" y="198" width="18" height="18" rx="2"></rect><rect x="72" y="198" width="18" height="18" rx="2"></rect><rect x="108" y="198" width="18" height="18" rx="2"></rect><rect x="126" y="198" width="18" height="18" rx="2"></rect><rect x="162" y="198" width="18" height="18" rx="2"></rect><rect x="216" y="198" width="18" height="18" rx="2"></rect><rect x="234" y="198" width="18" height="18" rx="2"></rect><rect x="270" y="198" width="18" height="18" rx="2"></rect><rect x="306" y="198" width="18" height="18" rx="2"></rect><rect x="342" y="198" width="18" height="18" rx="2"></rect><rect x="396" y="198" width="18" height="18" rx="2"></rect><rect x="414" y="198" width="18" height="18" rx="2"></rect><rect x="432" y="198" width="18" height="18" rx="2"></rect><rect x="144" y="216" width="18" height="18" rx="2"></rect><rect x="180" y="216" width="18" height="18" rx="2"></rect><rect x="216" y="216" width="18" height="18" rx="2"></rect><rect x="234" y="216" width="18" height="18" rx="2"></rect><rect x="252" y="216" width="18" height="18" rx="2"></rect><rect x="306" y="216" width="18" height="18" rx="2"></rect><rect x="324" y="216" width="18" height="18" rx="2"></rect><rect x="342" y="216" width="18" height="18" rx="2"></rect><rect x="360" y="216" width="18" height="18" rx="2"></rect><rect x="378" y="216" width="18" height="18" rx="2"></rect><rect x="450" y="216" width="18" height="18" rx="2"></rect><rect x="36" y="234" width="18" height="18" rx="2"></rect><rect x="90" y="234" width="18" height="18" rx="2"></rect><rect x="108" y="234" width="18" height="18" rx="2"></rect><rect x="144" y="234" width="18" height="18" rx="2"></rect><rect x="234" y="234" width="18" height="18" rx="2"></rect><rect x="288" y="234" width="18" height="18" rx="2"></rect><rect x="306" y="234" width="18" height="18" rx="2"></rect><rect x="324" y="234" width="18" height="18" rx="2"></rect><rect x="342" y="234" width="18" height="18" rx="2"></rect><rect x="396" y="234" width="18" height="18" rx="2"></rect><rect x="414" y="234" width="18" height="18" rx="2"></rect><rect x="450" y="234" width="18" height="18" rx="2"></rect><rect x="198" y="252" width="18" height="18" rx="2"></rect><rect x="216" y="252" width="18" height="18" rx="2"></rect><rect x="234" y="252" width="18" height="18" rx="2"></rect><rect x="252" y="252" width="18" height="18" rx="2"></rect><rect x="342" y="252" width="18" height="18" rx="2"></rect><rect x="414" y="252" width="18" height="18" rx="2"></rect><rect x="36" y="270" width="18" height="18" rx="2"></rect><rect x="54" y="270" width="18" height="18" rx="2"></rect><rect x="90" y="270" width="18" height="18" rx="2"></rect><rect x="108" y="270" width="18" height="18" rx="2"></rect><rect x="144" y="270" width="18" height="18" rx="2"></rect><rect x="180" y="270" width="18" height="18" rx="2"></rect><rect x="234" y="270" width="18" height="18" rx="2"></rect><rect x="252" y="270" width="18" height="18" rx="2"></rect><rect x="306" y="270" width="18" height="18" rx="2"></rect><rect x="324" y="270" width="18" height="18" rx="2"></rect><rect x="414" y="270" width="18" height="18" rx="2"></rect><rect x="432" y="270" width="18" height="18" rx="2"></rect><rect x="450" y="270" width="18" height="18" rx="2"></rect><rect x="468" y="270" width="18" height="18" rx="2"></rect><rect x="54" y="288" width="18" height="18" rx="2"></rect><rect x="72" y="288" width="18" height="18" rx="2"></rect><rect x="108" y="288" width="18" height="18" rx="2"></rect><rect x="144" y="288" width="18" height="18" rx="2"></rect><rect x="180" y="288" width="18" height="18" rx="2"></rect><rect x="198" y="288" width="18" height="18" rx="2"></rect><rect x="234" y="288" width="18" height="18" rx="2"></rect><rect x="252" y="288" width="18" height="18" rx="2"></rect><rect x="288" y="288" width="18" height="18" rx="2"></rect><rect x="306" y="288" width="18" height="18" rx="2"></rect><rect x="324" y="288" width="18" height="18" rx="2"></rect><rect x="396" y="288" width="18" height="18" rx="2"></rect><rect x="414" y="288" width="18" height="18" rx="2"></rect><rect x="432" y="288" width="18" height="18" rx="2"></rect><rect x="450" y="288" width="18" height="18" rx="2"></rect><rect x="36" y="306" width="18" height="18" rx="2"></rect><rect x="90" y="306" width="18" height="18" rx="2"></rect><rect x="108" y="306" width="18" height="18" rx="2"></rect><rect x="144" y="306" width="18" height="18" rx="2"></rect><rect x="198" y="306" width="18" height="18" rx="2"></rect><rect x="216" y="306" width="18" height="18" rx="2"></rect><rect x="252" y="306" width="18" height="18" rx="2"></rect><rect x="270" y="306" width="18" height="18" rx="2"></rect><rect x="342" y="306" width="18" height="18" rx="2"></rect><rect x="360" y="306" width="18" height="18" rx="2"></rect><rect x="432" y="306" width="18" height="18" rx="2"></rect><rect x="36" y="324" width="18" height="18" rx="2"></rect><rect x="54" y="324" width="18" height="18" rx="2"></rect><rect x="72" y="324" width="18" height="18" rx="2"></rect><rect x="90" y="324" width="18" height="18" rx="2"></rect><rect x="144" y="324" width="18" height="18" rx="2"></rect><rect x="180" y="324" width="18" height="18" rx="2"></rect><rect x="234" y="324" width="18" height="18" rx="2"></rect><rect x="270" y="324" width="18" height="18" rx="2"></rect><rect x="288" y="324" width="18" height="18" rx="2"></rect><rect x="306" y="324" width="18" height="18" rx="2"></rect><rect x="414" y="324" width="18" height="18" rx="2"></rect><rect x="450" y="324" width="18" height="18" rx="2"></rect><rect x="234" y="342" width="18" height="18" rx="2"></rect><rect x="252" y="342" width="18" height="18" rx="2"></rect><rect x="270" y="342" width="18" height="18" rx="2"></rect><rect x="288" y="342" width="18" height="18" rx="2"></rect><rect x="324" y="342" width="18" height="18" rx="2"></rect><rect x="342" y="342" width="18" height="18" rx="2"></rect><rect x="378" y="342" width="18" height="18" rx="2"></rect><rect x="414" y="342" width="18" height="18" rx="2"></rect><rect x="432" y="342" width="18" height="18" rx="2"></rect><rect x="450" y="342" width="18" height="18" rx="2"></rect><rect x="36" y="360" width="18" height="18" rx="2"></rect><rect x="54" y="360" width="18" height="18" rx="2"></rect><rect x="72" y="360" width="18" height="18" rx="2"></rect><rect x="90" y="360" width="18" height="18" rx="2"></rect><rect x="108" y="360" width="18" height="18" rx="2"></rect><rect x="126" y="360" width="18" height="18" rx="2"></rect><rect x="144" y="360" width="18" height="18" rx="2"></rect><rect x="198" y="360" width="18" height="18" rx="2"></rect><rect x="234" y="360" width="18" height="18" rx="2"></rect><rect x="306" y="360" width="18" height="18" rx="2"></rect><rect x="324" y="360" width="18" height="18" rx="2"></rect><rect x="342" y="360" width="18" height="18" rx="2"></rect><rect x="360" y="360" width="18" height="18" rx="2"></rect><rect x="396" y="360" width="18" height="18" rx="2"></rect><rect x="414" y="360" width="18" height="18" rx="2"></rect><rect x="432" y="360" width="18" height="18" rx="2"></rect><rect x="450" y="360" width="18" height="18" rx="2"></rect><rect x="36" y="378" width="18" height="18" rx="2"></rect><rect x="144" y="378" width="18" height="18" rx="2"></rect><rect x="252" y="378" width="18" height="18" rx="2"></rect><rect x="270" y="378" width="18" height="18" rx="2"></rect><rect x="288" y="378" width="18" height="18" rx="2"></rect><rect x="324" y="378" width="18" height="18" rx="2"></rect><rect x="378" y="378" width="18" height="18" rx="2"></rect><rect x="432" y="378" width="18" height="18" rx="2"></rect><rect x="36" y="396" width="18" height="18" rx="2"></rect><rect x="72" y="396" width="18" height="18" rx="2"></rect><rect x="90" y="396" width="18" height="18" rx="2"></rect><rect x="108" y="396" width="18" height="18" rx="2"></rect><rect x="144" y="396" width="18" height="18" rx="2"></rect><rect x="180" y="396" width="18" height="18" rx="2"></rect><rect x="198" y="396" width="18" height="18" rx="2"></rect><rect x="306" y="396" width="18" height="18" rx="2"></rect><rect x="324" y="396" width="18" height="18" rx="2"></rect><rect x="342" y="396" width="18" height="18" rx="2"></rect><rect x="360" y="396" width="18" height="18" rx="2"></rect><rect x="414" y="396" width="18" height="18" rx="2"></rect><rect x="450" y="396" width="18" height="18" rx="2"></rect><rect x="468" y="396" width="18" height="18" rx="2"></rect><rect x="36" y="414" width="18" height="18" rx="2"></rect><rect x="72" y="414" width="18" height="18" rx="2"></rect><rect x="90" y="414" width="18" height="18" rx="2"></rect><rect x="108" y="414" width="18" height="18" rx="2"></rect><rect x="144" y="414" width="18" height="18" rx="2"></rect><rect x="198" y="414" width="18" height="18" rx="2"></rect><rect x="216" y="414" width="18" height="18" rx="2"></rect><rect x="252" y="414" width="18" height="18" rx="2"></rect><rect x="306" y="414" width="18" height="18" rx="2"></rect><rect x="324" y="414" width="18" height="18" rx="2"></rect><rect x="342" y="414" width="18" height="18" rx="2"></rect><rect x="414" y="414" width="18" height="18" rx="2"></rect><rect x="432" y="414" width="18" height="18" rx="2"></rect><rect x="36" y="432" width="18" height="18" rx="2"></rect><rect x="72" y="432" width="18" height="18" rx="2"></rect><rect x="90" y="432" width="18" height="18" rx="2"></rect><rect x="108" y="432" width="18" height="18" rx="2"></rect><rect x="144" y="432" width="18" height="18" rx="2"></rect><rect x="180" y="432" width="18" height="18" rx="2"></rect><rect x="198" y="432" width="18" height="18" rx="2"></rect><rect x="234" y="432" width="18" height="18" rx="2"></rect><rect x="342" y="432" width="18" height="18" rx="2"></rect><rect x="396" y="432" width="18" height="18" rx="2"></rect><rect x="414" y="432" width="18" height="18" rx="2"></rect><rect x="450" y="432" width="18" height="18" rx="2"></rect><rect x="36" y="450" width="18" height="18" rx="2"></rect><rect x="144" y="450" width="18" height="18" rx="2"></rect><rect x="180" y="450" width="18" height="18" rx="2"></rect><rect x="198" y="450" width="18" height="18" rx="2"></rect><rect x="270" y="450" width="18" height="18" rx="2"></rect><rect x="288" y="450" width="18" height="18" rx="2"></rect><rect x="324" y="450" width="18" height="18" rx="2"></rect><rect x="414" y="450" width="18" height="18" rx="2"></rect><rect x="450" y="450" width="18" height="18" rx="2"></rect><rect x="468" y="450" width="18" height="18" rx="2"></rect><rect x="36" y="468" width="18" height="18" rx="2"></rect><rect x="54" y="468" width="18" height="18" rx="2"></rect><rect x="72" y="468" width="18" height="18" rx="2"></rect><rect x="90" y="468" width="18" height="18" rx="2"></rect><rect x="108" y="468" width="18" height="18" rx="2"></rect><rect x="126" y="468" width="18" height="18" rx="2"></rect><rect x="144" y="468" width="18" height="18" rx="2"></rect><rect x="198" y="468" width="18" height="18" rx="2"></rect><rect x="234" y="468" width="18" height="18" rx="2"></rect><rect x="252" y="468" width="18" height="18" rx="2"></rect><rect x="288" y="468" width="18" height="18" rx="2"></rect><rect x="324" y="468" width="18" height="18" rx="2"></rect><rect x="378" y="468" width="18" height="18" rx="2"></rect><rect x="396" y="468" width="18" height="18" rx="2"></rect><rect x="432" y="468" width="18" height="18" rx="2"></rect></g></svg>
